<svg width="48" height="48" viewBox="0 0 48 48" fill="none" xmlns="http://www.w3.org/2000/svg">
<rect width="48" height="48" fill="white"/>
<mask id="path-1-inside-1" fill="white">
<path fill-rule="evenodd" clip-rule="evenodd" d="M19.1768 11C18.4505 11 17.7812 11.3938 17.4285 12.0287L15.7778 15H8C3.58172 15 0 18.5817 0 23V38C0 42.4183 3.58172 46 8 46H40C44.4183 46 48 42.4183 48 38V23C48 18.5817 44.4183 15 40 15H31.9444L30.0849 11.9571C29.7216 11.3626 29.0751 11 28.3783 11H19.1768Z"/>
</mask>
<path d="M17.4285 12.0287L14.806 10.5718V10.5718L17.4285 12.0287ZM15.7778 15V18H17.543L18.4002 16.4569L15.7778 15ZM31.9444 15L29.3846 16.5644L30.2619 18H31.9444V15ZM30.0849 11.9571L32.6447 10.3927L32.6447 10.3927L30.0849 11.9571ZM20.051 13.4856C19.8746 13.8031 19.54 14 19.1768 14V8C17.361 8 15.6879 8.98446 14.806 10.5718L20.051 13.4856ZM18.4002 16.4569L20.051 13.4856L14.806 10.5718L13.1553 13.5431L18.4002 16.4569ZM8 18H15.7778V12H8V18ZM3 23C3 20.2386 5.23858 18 8 18V12C1.92487 12 -3 16.9249 -3 23H3ZM3 38V23H-3V38H3ZM8 43C5.23858 43 3 40.7614 3 38H-3C-3 44.0751 1.92487 49 8 49V43ZM40 43H8V49H40V43ZM45 38C45 40.7614 42.7614 43 40 43V49C46.0751 49 51 44.0751 51 38H45ZM45 23V38H51V23H45ZM40 18C42.7614 18 45 20.2386 45 23H51C51 16.9249 46.0751 12 40 12V18ZM31.9444 18H40V12H31.9444V18ZM27.525 13.5215L29.3846 16.5644L34.5043 13.4356L32.6447 10.3927L27.525 13.5215ZM28.3783 14C28.03 14 27.7067 13.8187 27.525 13.5215L32.6447 10.3927C31.7365 8.90648 30.1202 8 28.3783 8V14ZM19.1768 14H28.3783V8H19.1768V14Z" fill="#152C5B" mask="url(#path-1-inside-1)"/>
<path d="M34 21L41.9998 21.055" stroke="#152C5B" stroke-width="3" stroke-linecap="round"/>
<circle cx="24" cy="29" r="6.5" stroke="#FF498B" stroke-width="3"/>
</svg>
