<svg width="48" height="48" viewBox="0 0 48 48" fill="none" xmlns="http://www.w3.org/2000/svg">
<rect width="48" height="48" fill="white"/>
<circle cx="24" cy="14" r="4.5" stroke="#3252DF" stroke-width="3"/>
<path d="M36.5 15.4557C36.5 18.6294 35.0038 25.5645 32.5085 31.746C31.2673 34.821 29.8212 37.5999 28.2685 39.5824C26.6703 41.6231 25.2164 42.5 24 42.5C22.7836 42.5 21.3297 41.6231 19.7315 39.5824C18.1788 37.5999 16.7327 34.821 15.4915 31.746C12.9962 25.5645 11.5 18.6294 11.5 15.4557C11.5 9.56505 16.9268 4.5 24 4.5C31.0732 4.5 36.5 9.56505 36.5 15.4557Z" stroke="#152C5B" stroke-width="3"/>
<circle cx="24" cy="14" r="4.5" stroke="#FF498B" stroke-width="3"/>
<path d="M36.5 42C36.5 42.3212 36.3545 42.7526 35.8322 43.2818C35.3035 43.8175 34.4642 44.3687 33.3086 44.8639C31.0028 45.8521 27.7127 46.5 24 46.5C20.2873 46.5 16.9972 45.8521 14.6914 44.8639C13.5358 44.3687 12.6965 43.8175 12.1678 43.2818C11.6455 42.7526 11.5 42.3212 11.5 42C11.5 41.6788 11.6455 41.2474 12.1678 40.7182C12.6965 40.1825 13.5358 39.6313 14.6914 39.1361C16.9972 38.1479 20.2873 37.5 24 37.5C27.7127 37.5 31.0028 38.1479 33.3086 39.1361C34.4642 39.6313 35.3035 40.1825 35.8322 40.7182C36.3545 41.2474 36.5 41.6788 36.5 42Z" stroke="#152C5B" stroke-width="3"/>
</svg>
