<svg width="40" height="38" viewBox="0 0 40 38" fill="none" xmlns="http://www.w3.org/2000/svg">
<path d="M19.0489 0.927052C19.3483 0.00574112 20.6517 0.00573993 20.9511 0.927051L24.9393 13.2016C25.0732 13.6136 25.4571 13.8926 25.8904 13.8926H38.7966C39.7653 13.8926 40.1681 15.1322 39.3844 15.7016L28.943 23.2877C28.5925 23.5424 28.4459 23.9937 28.5798 24.4058L32.568 36.6803C32.8674 37.6017 31.8129 38.3678 31.0292 37.7984L20.5878 30.2123C20.2373 29.9576 19.7627 29.9576 19.4122 30.2123L8.97084 37.7984C8.18713 38.3678 7.13264 37.6017 7.432 36.6803L11.4202 24.4058C11.5541 23.9937 11.4075 23.5424 11.057 23.2877L0.6156 15.7016C-0.168114 15.1322 0.23466 13.8926 1.20338 13.8926H14.1096C14.5429 13.8926 14.9268 13.6136 15.0607 13.2016L19.0489 0.927052Z" fill="#FAD985"/>
</svg>
